<?xml version="1.0" encoding="UTF-8"?>
<!DOCTYPE svg PUBLIC "-//W3C//DTD SVG 1.1//EN" "http://www.w3.org/Graphics/SVG/1.1/DTD/svg11.dtd">
<svg width="200mm" height="100mm" viewBox="0 0 20000 10000" version="1.1" baseProfile="tiny" xmlns="http://www.w3.org/2000/svg" stroke-width="28.222" stroke-linejoin="round" xml:space="preserve">
 <path fill="rgb(255,255,255)" stroke="none" d="M 10009,10001 L 9,10001 9,1 20009,1 20009,10001 10009,10001 Z"/>
 <path fill="none" stroke="rgb(179,179,179)" stroke-linejoin="round" d="M 10875,7823 L 2142,7823 2142,400 19609,400 19609,7823 10875,7823 Z"/>
 <path fill="none" stroke="rgb(179,179,179)" stroke-linejoin="round" d="M 19609,7822 L 2142,7822"/>
 <path fill="none" stroke="rgb(179,179,179)" stroke-linejoin="round" d="M 19609,5966 L 2142,5966"/>
 <path fill="none" stroke="rgb(179,179,179)" stroke-linejoin="round" d="M 19609,4111 L 2142,4111"/>
 <path fill="none" stroke="rgb(179,179,179)" stroke-linejoin="round" d="M 19609,2255 L 2142,2255"/>
 <path fill="none" stroke="rgb(179,179,179)" stroke-linejoin="round" d="M 19609,399 L 2142,399"/>
 <path fill="none" stroke="rgb(221,221,221)" stroke-linejoin="round" d="M 19609,7263 L 2142,7263"/>
 <path fill="none" stroke="rgb(221,221,221)" stroke-linejoin="round" d="M 19609,6936 L 2142,6936"/>
 <path fill="none" stroke="rgb(221,221,221)" stroke-linejoin="round" d="M 19609,6704 L 2142,6704"/>
 <path fill="none" stroke="rgb(221,221,221)" stroke-linejoin="round" d="M 19609,6524 L 2142,6524"/>
 <path fill="none" stroke="rgb(221,221,221)" stroke-linejoin="round" d="M 19609,6377 L 2142,6377"/>
 <path fill="none" stroke="rgb(221,221,221)" stroke-linejoin="round" d="M 19609,6253 L 2142,6253"/>
 <path fill="none" stroke="rgb(221,221,221)" stroke-linejoin="round" d="M 19609,6145 L 2142,6145"/>
 <path fill="none" stroke="rgb(221,221,221)" stroke-linejoin="round" d="M 19609,6050 L 2142,6050"/>
 <path fill="none" stroke="rgb(221,221,221)" stroke-linejoin="round" d="M 19609,5407 L 2142,5407"/>
 <path fill="none" stroke="rgb(221,221,221)" stroke-linejoin="round" d="M 19609,5080 L 2142,5080"/>
 <path fill="none" stroke="rgb(221,221,221)" stroke-linejoin="round" d="M 19609,4849 L 2142,4849"/>
 <path fill="none" stroke="rgb(221,221,221)" stroke-linejoin="round" d="M 19609,4669 L 2142,4669"/>
 <path fill="none" stroke="rgb(221,221,221)" stroke-linejoin="round" d="M 19609,4522 L 2142,4522"/>
 <path fill="none" stroke="rgb(221,221,221)" stroke-linejoin="round" d="M 19609,4398 L 2142,4398"/>
 <path fill="none" stroke="rgb(221,221,221)" stroke-linejoin="round" d="M 19609,4290 L 2142,4290"/>
 <path fill="none" stroke="rgb(221,221,221)" stroke-linejoin="round" d="M 19609,4195 L 2142,4195"/>
 <path fill="none" stroke="rgb(221,221,221)" stroke-linejoin="round" d="M 19609,3552 L 2142,3552"/>
 <path fill="none" stroke="rgb(221,221,221)" stroke-linejoin="round" d="M 19609,3225 L 2142,3225"/>
 <path fill="none" stroke="rgb(221,221,221)" stroke-linejoin="round" d="M 19609,2993 L 2142,2993"/>
 <path fill="none" stroke="rgb(221,221,221)" stroke-linejoin="round" d="M 19609,2813 L 2142,2813"/>
 <path fill="none" stroke="rgb(221,221,221)" stroke-linejoin="round" d="M 19609,2666 L 2142,2666"/>
 <path fill="none" stroke="rgb(221,221,221)" stroke-linejoin="round" d="M 19609,2542 L 2142,2542"/>
 <path fill="none" stroke="rgb(221,221,221)" stroke-linejoin="round" d="M 19609,2434 L 2142,2434"/>
 <path fill="none" stroke="rgb(221,221,221)" stroke-linejoin="round" d="M 19609,2339 L 2142,2339"/>
 <path fill="none" stroke="rgb(221,221,221)" stroke-linejoin="round" d="M 19609,1696 L 2142,1696"/>
 <path fill="none" stroke="rgb(221,221,221)" stroke-linejoin="round" d="M 19609,1369 L 2142,1369"/>
 <path fill="none" stroke="rgb(221,221,221)" stroke-linejoin="round" d="M 19609,1137 L 2142,1137"/>
 <path fill="none" stroke="rgb(221,221,221)" stroke-linejoin="round" d="M 19609,957 L 2142,957"/>
 <path fill="none" stroke="rgb(221,221,221)" stroke-linejoin="round" d="M 19609,810 L 2142,810"/>
 <path fill="none" stroke="rgb(221,221,221)" stroke-linejoin="round" d="M 19609,686 L 2142,686"/>
 <path fill="none" stroke="rgb(221,221,221)" stroke-linejoin="round" d="M 19609,578 L 2142,578"/>
 <path fill="none" stroke="rgb(221,221,221)" stroke-linejoin="round" d="M 19609,483 L 2142,483"/>
 <path fill="none" stroke="rgb(179,179,179)" stroke-linejoin="round" d="M 2142,7822 L 19609,7822"/>
 <path fill="none" stroke="rgb(179,179,179)" stroke-linejoin="round" d="M 1992,7822 L 2142,7822"/>
 <path fill="none" stroke="rgb(179,179,179)" stroke-linejoin="round" d="M 1992,7822 L 2142,7822"/>
 <path fill="none" stroke="rgb(179,179,179)" stroke-linejoin="round" d="M 1992,5966 L 2142,5966"/>
 <path fill="none" stroke="rgb(179,179,179)" stroke-linejoin="round" d="M 1992,5966 L 2142,5966"/>
 <path fill="none" stroke="rgb(179,179,179)" stroke-linejoin="round" d="M 1992,4111 L 2142,4111"/>
 <path fill="none" stroke="rgb(179,179,179)" stroke-linejoin="round" d="M 1992,4111 L 2142,4111"/>
 <path fill="none" stroke="rgb(179,179,179)" stroke-linejoin="round" d="M 1992,2255 L 2142,2255"/>
 <path fill="none" stroke="rgb(179,179,179)" stroke-linejoin="round" d="M 1992,2255 L 2142,2255"/>
 <path fill="none" stroke="rgb(179,179,179)" stroke-linejoin="round" d="M 1992,399 L 2142,399"/>
 <path fill="none" stroke="rgb(179,179,179)" stroke-linejoin="round" d="M 1992,399 L 2142,399"/>
 <path fill="none" stroke="rgb(179,179,179)" stroke-linejoin="round" d="M 2142,7822 L 2142,399"/>
 <path fill="rgb(0,69,134)" stroke="none" d="M 2017,1571 L 2017,1821 2267,1821 2267,1571 2017,1571 Z"/>
 <path fill="none" stroke="rgb(0,69,134)" stroke-linejoin="round" d="M 2017,1571 L 2017,1821 2267,1821 2267,1571 2017,1571 Z"/>
 <path fill="rgb(0,69,134)" stroke="none" d="M 2243,1434 L 2243,1684 2493,1684 2493,1434 2243,1434 Z"/>
 <path fill="none" stroke="rgb(0,69,134)" stroke-linejoin="round" d="M 2243,1434 L 2243,1684 2493,1684 2493,1434 2243,1434 Z"/>
 <path fill="rgb(0,69,134)" stroke="none" d="M 2470,1391 L 2470,1641 2720,1641 2720,1391 2470,1391 Z"/>
 <path fill="none" stroke="rgb(0,69,134)" stroke-linejoin="round" d="M 2470,1391 L 2470,1641 2720,1641 2720,1391 2470,1391 Z"/>
 <path fill="rgb(0,69,134)" stroke="none" d="M 2697,1372 L 2697,1622 2947,1622 2947,1372 2697,1372 Z"/>
 <path fill="none" stroke="rgb(0,69,134)" stroke-linejoin="round" d="M 2697,1372 L 2697,1622 2947,1622 2947,1372 2697,1372 Z"/>
 <path fill="rgb(0,69,134)" stroke="none" d="M 2924,1362 L 2924,1612 3174,1612 3174,1362 2924,1362 Z"/>
 <path fill="none" stroke="rgb(0,69,134)" stroke-linejoin="round" d="M 2924,1362 L 2924,1612 3174,1612 3174,1362 2924,1362 Z"/>
 <path fill="rgb(0,69,134)" stroke="none" d="M 3151,1356 L 3151,1606 3401,1606 3401,1356 3151,1356 Z"/>
 <path fill="none" stroke="rgb(0,69,134)" stroke-linejoin="round" d="M 3151,1356 L 3151,1606 3401,1606 3401,1356 3151,1356 Z"/>
 <path fill="rgb(0,69,134)" stroke="none" d="M 3378,1352 L 3378,1602 3628,1602 3628,1352 3378,1352 Z"/>
 <path fill="none" stroke="rgb(0,69,134)" stroke-linejoin="round" d="M 3378,1352 L 3378,1602 3628,1602 3628,1352 3378,1352 Z"/>
 <path fill="rgb(0,69,134)" stroke="none" d="M 3605,1349 L 3605,1599 3855,1599 3855,1349 3605,1349 Z"/>
 <path fill="none" stroke="rgb(0,69,134)" stroke-linejoin="round" d="M 3605,1349 L 3605,1599 3855,1599 3855,1349 3605,1349 Z"/>
 <path fill="rgb(0,69,134)" stroke="none" d="M 3831,1347 L 3831,1597 4081,1597 4081,1347 3831,1347 Z"/>
 <path fill="none" stroke="rgb(0,69,134)" stroke-linejoin="round" d="M 3831,1347 L 3831,1597 4081,1597 4081,1347 3831,1347 Z"/>
 <path fill="rgb(0,69,134)" stroke="none" d="M 4058,1339 L 4058,1589 4308,1589 4308,1339 4058,1339 Z"/>
 <path fill="none" stroke="rgb(0,69,134)" stroke-linejoin="round" d="M 4058,1339 L 4058,1589 4308,1589 4308,1339 4058,1339 Z"/>
 <path fill="rgb(0,69,134)" stroke="none" d="M 4285,1339 L 4285,1589 4535,1589 4535,1339 4285,1339 Z"/>
 <path fill="none" stroke="rgb(0,69,134)" stroke-linejoin="round" d="M 4285,1339 L 4285,1589 4535,1589 4535,1339 4285,1339 Z"/>
 <path fill="rgb(0,69,134)" stroke="none" d="M 4512,1339 L 4512,1589 4762,1589 4762,1339 4512,1339 Z"/>
 <path fill="none" stroke="rgb(0,69,134)" stroke-linejoin="round" d="M 4512,1339 L 4512,1589 4762,1589 4762,1339 4512,1339 Z"/>
 <path fill="rgb(0,69,134)" stroke="none" d="M 4739,2930 L 4739,3180 4989,3180 4989,2930 4739,2930 Z"/>
 <path fill="none" stroke="rgb(0,69,134)" stroke-linejoin="round" d="M 4739,2930 L 4739,3180 4989,3180 4989,2930 4739,2930 Z"/>
 <path fill="rgb(0,69,134)" stroke="none" d="M 4966,2689 L 4966,2939 5216,2939 5216,2689 4966,2689 Z"/>
 <path fill="none" stroke="rgb(0,69,134)" stroke-linejoin="round" d="M 4966,2689 L 4966,2939 5216,2939 5216,2689 4966,2689 Z"/>
 <path fill="rgb(0,69,134)" stroke="none" d="M 5193,2597 L 5193,2847 5443,2847 5443,2597 5193,2597 Z"/>
 <path fill="none" stroke="rgb(0,69,134)" stroke-linejoin="round" d="M 5193,2597 L 5193,2847 5443,2847 5443,2597 5193,2597 Z"/>
 <path fill="rgb(0,69,134)" stroke="none" d="M 5419,2552 L 5419,2802 5669,2802 5669,2552 5419,2552 Z"/>
 <path fill="none" stroke="rgb(0,69,134)" stroke-linejoin="round" d="M 5419,2552 L 5419,2802 5669,2802 5669,2552 5419,2552 Z"/>
 <path fill="rgb(0,69,134)" stroke="none" d="M 5646,2525 L 5646,2775 5896,2775 5896,2525 5646,2525 Z"/>
 <path fill="none" stroke="rgb(0,69,134)" stroke-linejoin="round" d="M 5646,2525 L 5646,2775 5896,2775 5896,2525 5646,2525 Z"/>
 <path fill="rgb(0,69,134)" stroke="none" d="M 5873,2509 L 5873,2759 6123,2759 6123,2509 5873,2509 Z"/>
 <path fill="none" stroke="rgb(0,69,134)" stroke-linejoin="round" d="M 5873,2509 L 5873,2759 6123,2759 6123,2509 5873,2509 Z"/>
 <path fill="rgb(0,69,134)" stroke="none" d="M 6100,2497 L 6100,2747 6350,2747 6350,2497 6100,2497 Z"/>
 <path fill="none" stroke="rgb(0,69,134)" stroke-linejoin="round" d="M 6100,2497 L 6100,2747 6350,2747 6350,2497 6100,2497 Z"/>
 <path fill="rgb(0,69,134)" stroke="none" d="M 6327,2490 L 6327,2740 6577,2740 6577,2490 6327,2490 Z"/>
 <path fill="none" stroke="rgb(0,69,134)" stroke-linejoin="round" d="M 6327,2490 L 6327,2740 6577,2740 6577,2490 6327,2490 Z"/>
 <path fill="rgb(0,69,134)" stroke="none" d="M 6554,2457 L 6554,2707 6804,2707 6804,2457 6554,2457 Z"/>
 <path fill="none" stroke="rgb(0,69,134)" stroke-linejoin="round" d="M 6554,2457 L 6554,2707 6804,2707 6804,2457 6554,2457 Z"/>
 <path fill="rgb(0,69,134)" stroke="none" d="M 6780,2457 L 6780,2707 7030,2707 7030,2457 6780,2457 Z"/>
 <path fill="none" stroke="rgb(0,69,134)" stroke-linejoin="round" d="M 6780,2457 L 6780,2707 7030,2707 7030,2457 6780,2457 Z"/>
 <path fill="rgb(0,69,134)" stroke="none" d="M 7007,2457 L 7007,2707 7257,2707 7257,2457 7007,2457 Z"/>
 <path fill="none" stroke="rgb(0,69,134)" stroke-linejoin="round" d="M 7007,2457 L 7007,2707 7257,2707 7257,2457 7007,2457 Z"/>
 <path fill="rgb(0,69,134)" stroke="none" d="M 7234,3777 L 7234,4027 7484,4027 7484,3777 7234,3777 Z"/>
 <path fill="none" stroke="rgb(0,69,134)" stroke-linejoin="round" d="M 7234,3777 L 7234,4027 7484,4027 7484,3777 7234,3777 Z"/>
 <path fill="rgb(0,69,134)" stroke="none" d="M 7461,3470 L 7461,3720 7711,3720 7711,3470 7461,3470 Z"/>
 <path fill="none" stroke="rgb(0,69,134)" stroke-linejoin="round" d="M 7461,3470 L 7461,3720 7711,3720 7711,3470 7461,3470 Z"/>
 <path fill="rgb(0,69,134)" stroke="none" d="M 7688,3342 L 7688,3592 7938,3592 7938,3342 7688,3342 Z"/>
 <path fill="none" stroke="rgb(0,69,134)" stroke-linejoin="round" d="M 7688,3342 L 7688,3592 7938,3592 7938,3342 7688,3342 Z"/>
 <path fill="rgb(0,69,134)" stroke="none" d="M 7915,3274 L 7915,3524 8165,3524 8165,3274 7915,3274 Z"/>
 <path fill="none" stroke="rgb(0,69,134)" stroke-linejoin="round" d="M 7915,3274 L 7915,3524 8165,3524 8165,3274 7915,3274 Z"/>
 <path fill="rgb(0,69,134)" stroke="none" d="M 8142,3232 L 8142,3482 8392,3482 8392,3232 8142,3232 Z"/>
 <path fill="none" stroke="rgb(0,69,134)" stroke-linejoin="round" d="M 8142,3232 L 8142,3482 8392,3482 8392,3232 8142,3232 Z"/>
 <path fill="rgb(0,69,134)" stroke="none" d="M 8369,3205 L 8369,3455 8619,3455 8619,3205 8369,3205 Z"/>
 <path fill="none" stroke="rgb(0,69,134)" stroke-linejoin="round" d="M 8369,3205 L 8369,3455 8619,3455 8619,3205 8369,3205 Z"/>
 <path fill="rgb(0,69,134)" stroke="none" d="M 8595,3186 L 8595,3436 8845,3436 8845,3186 8595,3186 Z"/>
 <path fill="none" stroke="rgb(0,69,134)" stroke-linejoin="round" d="M 8595,3186 L 8595,3436 8845,3436 8845,3186 8595,3186 Z"/>
 <path fill="rgb(0,69,134)" stroke="none" d="M 8822,3111 L 8822,3361 9072,3361 9072,3111 8822,3111 Z"/>
 <path fill="none" stroke="rgb(0,69,134)" stroke-linejoin="round" d="M 8822,3111 L 8822,3361 9072,3361 9072,3111 8822,3111 Z"/>
 <path fill="rgb(0,69,134)" stroke="none" d="M 9049,3110 L 9049,3360 9299,3360 9299,3110 9049,3110 Z"/>
 <path fill="none" stroke="rgb(0,69,134)" stroke-linejoin="round" d="M 9049,3110 L 9049,3360 9299,3360 9299,3110 9049,3110 Z"/>
 <path fill="rgb(0,69,134)" stroke="none" d="M 9276,3110 L 9276,3360 9526,3360 9526,3110 9276,3110 Z"/>
 <path fill="none" stroke="rgb(0,69,134)" stroke-linejoin="round" d="M 9276,3110 L 9276,3360 9526,3360 9526,3110 9276,3110 Z"/>
 <path fill="rgb(0,69,134)" stroke="none" d="M 9503,4398 L 9503,4648 9753,4648 9753,4398 9503,4398 Z"/>
 <path fill="none" stroke="rgb(0,69,134)" stroke-linejoin="round" d="M 9503,4398 L 9503,4648 9753,4648 9753,4398 9503,4398 Z"/>
 <path fill="rgb(0,69,134)" stroke="none" d="M 9730,4048 L 9730,4298 9980,4298 9980,4048 9730,4048 Z"/>
 <path fill="none" stroke="rgb(0,69,134)" stroke-linejoin="round" d="M 9730,4048 L 9730,4298 9980,4298 9980,4048 9730,4048 Z"/>
 <path fill="rgb(0,69,134)" stroke="none" d="M 9957,3893 L 9957,4143 10206,4143 10206,3893 9957,3893 Z"/>
 <path fill="none" stroke="rgb(0,69,134)" stroke-linejoin="round" d="M 9957,3893 L 9957,4143 10206,4143 10206,3893 9957,3893 Z"/>
 <path fill="rgb(0,69,134)" stroke="none" d="M 10182,3806 L 10182,4056 10432,4056 10432,3806 10182,3806 Z"/>
 <path fill="none" stroke="rgb(0,69,134)" stroke-linejoin="round" d="M 10182,3806 L 10182,4056 10432,4056 10432,3806 10182,3806 Z"/>
 <path fill="rgb(0,69,134)" stroke="none" d="M 10409,3751 L 10409,4001 10659,4001 10659,3751 10409,3751 Z"/>
 <path fill="none" stroke="rgb(0,69,134)" stroke-linejoin="round" d="M 10409,3751 L 10409,4001 10659,4001 10659,3751 10409,3751 Z"/>
 <path fill="rgb(0,69,134)" stroke="none" d="M 10636,3715 L 10636,3965 10886,3965 10886,3715 10636,3715 Z"/>
 <path fill="none" stroke="rgb(0,69,134)" stroke-linejoin="round" d="M 10636,3715 L 10636,3965 10886,3965 10886,3715 10636,3715 Z"/>
 <path fill="rgb(0,69,134)" stroke="none" d="M 10863,3575 L 10863,3825 11113,3825 11113,3575 10863,3575 Z"/>
 <path fill="none" stroke="rgb(0,69,134)" stroke-linejoin="round" d="M 10863,3575 L 10863,3825 11113,3825 11113,3575 10863,3575 Z"/>
 <path fill="rgb(0,69,134)" stroke="none" d="M 11090,3574 L 11090,3824 11340,3824 11340,3574 11090,3574 Z"/>
 <path fill="none" stroke="rgb(0,69,134)" stroke-linejoin="round" d="M 11090,3574 L 11090,3824 11340,3824 11340,3574 11090,3574 Z"/>
 <path fill="rgb(0,69,134)" stroke="none" d="M 11317,3574 L 11317,3824 11567,3824 11567,3574 11317,3574 Z"/>
 <path fill="none" stroke="rgb(0,69,134)" stroke-linejoin="round" d="M 11317,3574 L 11317,3824 11567,3824 11567,3574 11317,3574 Z"/>
 <path fill="rgb(0,69,134)" stroke="none" d="M 11543,4889 L 11543,5138 11793,5138 11793,4889 11543,4889 Z"/>
 <path fill="none" stroke="rgb(0,69,134)" stroke-linejoin="round" d="M 11543,4889 L 11543,5138 11793,5138 11793,4889 11543,4889 Z"/>
 <path fill="rgb(0,69,134)" stroke="none" d="M 11770,4509 L 11770,4759 12020,4759 12020,4509 11770,4509 Z"/>
 <path fill="none" stroke="rgb(0,69,134)" stroke-linejoin="round" d="M 11770,4509 L 11770,4759 12020,4759 12020,4509 11770,4509 Z"/>
 <path fill="rgb(0,69,134)" stroke="none" d="M 11997,4333 L 11997,4583 12247,4583 12247,4333 11997,4333 Z"/>
 <path fill="none" stroke="rgb(0,69,134)" stroke-linejoin="round" d="M 11997,4333 L 11997,4583 12247,4583 12247,4333 11997,4333 Z"/>
 <path fill="rgb(0,69,134)" stroke="none" d="M 12224,4231 L 12224,4481 12474,4481 12474,4231 12224,4231 Z"/>
 <path fill="none" stroke="rgb(0,69,134)" stroke-linejoin="round" d="M 12224,4231 L 12224,4481 12474,4481 12474,4231 12224,4231 Z"/>
 <path fill="rgb(0,69,134)" stroke="none" d="M 12451,4166 L 12451,4416 12701,4416 12701,4166 12451,4166 Z"/>
 <path fill="none" stroke="rgb(0,69,134)" stroke-linejoin="round" d="M 12451,4166 L 12451,4416 12701,4416 12701,4166 12451,4166 Z"/>
 <path fill="rgb(0,69,134)" stroke="none" d="M 12678,3936 L 12678,4186 12928,4186 12928,3936 12678,3936 Z"/>
 <path fill="none" stroke="rgb(0,69,134)" stroke-linejoin="round" d="M 12678,3936 L 12678,4186 12928,4186 12928,3936 12678,3936 Z"/>
 <path fill="rgb(0,69,134)" stroke="none" d="M 12905,3934 L 12905,4184 13155,4184 13155,3934 12905,3934 Z"/>
 <path fill="none" stroke="rgb(0,69,134)" stroke-linejoin="round" d="M 12905,3934 L 12905,4184 13155,4184 13155,3934 12905,3934 Z"/>
 <path fill="rgb(0,69,134)" stroke="none" d="M 13131,3934 L 13131,4184 13381,4184 13381,3934 13131,3934 Z"/>
 <path fill="none" stroke="rgb(0,69,134)" stroke-linejoin="round" d="M 13131,3934 L 13131,4184 13381,4184 13381,3934 13131,3934 Z"/>
 <path fill="rgb(0,69,134)" stroke="none" d="M 13358,5296 L 13358,5546 13608,5546 13608,5296 13358,5296 Z"/>
 <path fill="none" stroke="rgb(0,69,134)" stroke-linejoin="round" d="M 13358,5296 L 13358,5546 13608,5546 13608,5296 13358,5296 Z"/>
 <path fill="rgb(0,69,134)" stroke="none" d="M 13585,4894 L 13585,5143 13835,5143 13835,4894 13585,4894 Z"/>
 <path fill="none" stroke="rgb(0,69,134)" stroke-linejoin="round" d="M 13585,4894 L 13585,5143 13835,5143 13835,4894 13585,4894 Z"/>
 <path fill="rgb(0,69,134)" stroke="none" d="M 13812,4702 L 13812,4952 14062,4952 14062,4702 13812,4702 Z"/>
 <path fill="none" stroke="rgb(0,69,134)" stroke-linejoin="round" d="M 13812,4702 L 13812,4952 14062,4952 14062,4702 13812,4702 Z"/>
 <path fill="rgb(0,69,134)" stroke="none" d="M 14039,4587 L 14039,4837 14289,4837 14289,4587 14039,4587 Z"/>
 <path fill="none" stroke="rgb(0,69,134)" stroke-linejoin="round" d="M 14039,4587 L 14039,4837 14289,4837 14289,4587 14039,4587 Z"/>
 <path fill="rgb(0,69,134)" stroke="none" d="M 14266,4231 L 14266,4481 14516,4481 14516,4231 14266,4231 Z"/>
 <path fill="none" stroke="rgb(0,69,134)" stroke-linejoin="round" d="M 14266,4231 L 14266,4481 14516,4481 14516,4231 14266,4231 Z"/>
 <path fill="rgb(0,69,134)" stroke="none" d="M 14493,4228 L 14493,4478 14743,4478 14743,4228 14493,4228 Z"/>
 <path fill="none" stroke="rgb(0,69,134)" stroke-linejoin="round" d="M 14493,4228 L 14493,4478 14743,4478 14743,4228 14493,4228 Z"/>
 <path fill="rgb(0,69,134)" stroke="none" d="M 14719,4228 L 14719,4478 14969,4478 14969,4228 14719,4228 Z"/>
 <path fill="none" stroke="rgb(0,69,134)" stroke-linejoin="round" d="M 14719,4228 L 14719,4478 14969,4478 14969,4228 14719,4228 Z"/>
 <path fill="rgb(0,69,134)" stroke="none" d="M 14946,5645 L 14946,5895 15196,5895 15196,5645 14946,5645 Z"/>
 <path fill="none" stroke="rgb(0,69,134)" stroke-linejoin="round" d="M 14946,5645 L 14946,5895 15196,5895 15196,5645 14946,5645 Z"/>
 <path fill="rgb(0,69,134)" stroke="none" d="M 15173,5224 L 15173,5474 15423,5474 15423,5224 15173,5224 Z"/>
 <path fill="none" stroke="rgb(0,69,134)" stroke-linejoin="round" d="M 15173,5224 L 15173,5474 15423,5474 15423,5224 15173,5224 Z"/>
 <path fill="rgb(0,69,134)" stroke="none" d="M 15400,5018 L 15400,5268 15650,5268 15650,5018 15400,5018 Z"/>
 <path fill="none" stroke="rgb(0,69,134)" stroke-linejoin="round" d="M 15400,5018 L 15400,5268 15650,5268 15650,5018 15400,5018 Z"/>
 <path fill="rgb(0,69,134)" stroke="none" d="M 15627,4480 L 15627,4730 15877,4730 15877,4480 15627,4480 Z"/>
 <path fill="none" stroke="rgb(0,69,134)" stroke-linejoin="round" d="M 15627,4480 L 15627,4730 15877,4730 15877,4480 15627,4480 Z"/>
 <path fill="rgb(0,69,134)" stroke="none" d="M 15854,4476 L 15854,4726 16104,4726 16104,4476 15854,4476 Z"/>
 <path fill="none" stroke="rgb(0,69,134)" stroke-linejoin="round" d="M 15854,4476 L 15854,4726 16104,4726 16104,4476 15854,4476 Z"/>
 <path fill="rgb(0,69,134)" stroke="none" d="M 16081,4476 L 16081,4726 16331,4726 16331,4476 16081,4476 Z"/>
 <path fill="none" stroke="rgb(0,69,134)" stroke-linejoin="round" d="M 16081,4476 L 16081,4726 16331,4726 16331,4476 16081,4476 Z"/>
 <path fill="rgb(0,69,134)" stroke="none" d="M 16308,5949 L 16308,6199 16558,6199 16558,5949 16308,5949 Z"/>
 <path fill="none" stroke="rgb(0,69,134)" stroke-linejoin="round" d="M 16308,5949 L 16308,6199 16558,6199 16558,5949 16308,5949 Z"/>
 <path fill="rgb(0,69,134)" stroke="none" d="M 16534,5514 L 16534,5764 16784,5764 16784,5514 16534,5514 Z"/>
 <path fill="none" stroke="rgb(0,69,134)" stroke-linejoin="round" d="M 16534,5514 L 16534,5764 16784,5764 16784,5514 16534,5514 Z"/>
 <path fill="rgb(0,69,134)" stroke="none" d="M 16761,4697 L 16761,4947 17011,4947 17011,4697 16761,4697 Z"/>
 <path fill="none" stroke="rgb(0,69,134)" stroke-linejoin="round" d="M 16761,4697 L 16761,4947 17011,4947 17011,4697 16761,4697 Z"/>
 <path fill="rgb(0,69,134)" stroke="none" d="M 16988,4692 L 16988,4942 17238,4942 17238,4692 16988,4692 Z"/>
 <path fill="none" stroke="rgb(0,69,134)" stroke-linejoin="round" d="M 16988,4692 L 16988,4942 17238,4942 17238,4692 16988,4692 Z"/>
 <path fill="rgb(0,69,134)" stroke="none" d="M 17215,4691 L 17215,4941 17465,4941 17465,4691 17215,4691 Z"/>
 <path fill="none" stroke="rgb(0,69,134)" stroke-linejoin="round" d="M 17215,4691 L 17215,4941 17465,4941 17465,4691 17215,4691 Z"/>
 <path fill="rgb(0,69,134)" stroke="none" d="M 17442,6219 L 17442,6469 17692,6469 17692,6219 17442,6219 Z"/>
 <path fill="none" stroke="rgb(0,69,134)" stroke-linejoin="round" d="M 17442,6219 L 17442,6469 17692,6469 17692,6219 17442,6219 Z"/>
 <path fill="rgb(0,69,134)" stroke="none" d="M 17669,4888 L 17669,5137 17919,5137 17919,4888 17669,4888 Z"/>
 <path fill="none" stroke="rgb(0,69,134)" stroke-linejoin="round" d="M 17669,4888 L 17669,5137 17919,5137 17919,4888 17669,4888 Z"/>
 <path fill="rgb(0,69,134)" stroke="none" d="M 17896,4881 L 17896,5130 18146,5130 18146,4881 17896,4881 Z"/>
 <path fill="none" stroke="rgb(0,69,134)" stroke-linejoin="round" d="M 17896,4881 L 17896,5130 18146,5130 18146,4881 17896,4881 Z"/>
 <path fill="rgb(0,69,134)" stroke="none" d="M 18122,4881 L 18122,5130 18372,5130 18372,4881 18122,4881 Z"/>
 <path fill="none" stroke="rgb(0,69,134)" stroke-linejoin="round" d="M 18122,4881 L 18122,5130 18372,5130 18372,4881 18122,4881 Z"/>
 <path fill="rgb(0,69,134)" stroke="none" d="M 18349,5058 L 18349,5308 18599,5308 18599,5058 18349,5058 Z"/>
 <path fill="none" stroke="rgb(0,69,134)" stroke-linejoin="round" d="M 18349,5058 L 18349,5308 18599,5308 18599,5058 18349,5058 Z"/>
 <path fill="rgb(0,69,134)" stroke="none" d="M 18576,5050 L 18576,5300 18826,5300 18826,5050 18576,5050 Z"/>
 <path fill="none" stroke="rgb(0,69,134)" stroke-linejoin="round" d="M 18576,5050 L 18576,5300 18826,5300 18826,5050 18576,5050 Z"/>
 <path fill="rgb(0,69,134)" stroke="none" d="M 18803,5050 L 18803,5300 19053,5300 19053,5050 18803,5050 Z"/>
 <path fill="none" stroke="rgb(0,69,134)" stroke-linejoin="round" d="M 18803,5050 L 18803,5300 19053,5300 19053,5050 18803,5050 Z"/>
 <path fill="none" stroke="rgb(255,211,32)" stroke-width="80" stroke-linejoin="round" stroke-dasharray="158,158" d="M 2142,6889 L 2368,6889 2595,6889 2822,6889 3049,6889 3276,6889 3503,6889 3730,6889 3956,6889 4183,6889 4410,6889 4637,6889 4864,6889 5091,6889 5318,6889 5544,6889 5771,6889 5998,6889 6225,6889 6452,6889 6679,6889 6905,6889 7132,6889 7359,6889 7586,6889 7813,6889 8040,6889 8267,6889 8494,6889 8720,6889 8947,6889 9174,6889 9401,6889 9628,6889 9855,6889 10081,6889 10307,6889 10534,6889 10761,6889 10988,6889 11215,6889 11442,6889 11668,6889 11895,6889 12122,6889 12349,6889 12576,6889 12803,6889 13030,6889 13256,6889 13483,6889 13710,6889 13937,6889 14164,6889 14391,6889 14618,6889 14844,6889 15071,6889 15298,6889 15525,6889 15752,6889 15979,6889 16206,6889 16433,6889 16659,6889 16886,6889 17113,6889 17340,6889 17567,6889 17794,6889 18021,6889 18247,6889 18474,6889 18701,6889 18928,6889 19155,6889 19382,6889 19609,6889"/>
 <path fill="none" stroke="rgb(255,66,14)" stroke-width="80" stroke-linejoin="round" stroke-dasharray="158,158" d="M 2142,7448 L 2368,7448 2595,7448 2822,7448 3049,7448 3276,7448 3503,7448 3730,7448 3956,7448 4183,7448 4410,7448 4637,7448 4864,7448 5091,7448 5318,7448 5544,7448 5771,7448 5998,7448 6225,7448 6452,7448 6679,7448 6905,7448 7132,7448 7359,7448 7586,7448 7813,7448 8040,7448 8267,7448 8494,7448 8720,7448 8947,7448 9174,7448 9401,7448 9628,7448 9855,7448 10081,7448 10307,7448 10534,7448 10761,7448 10988,7448 11215,7448 11442,7448 11668,7448 11895,7448 12122,7448 12349,7448 12576,7448 12803,7448 13030,7448 13256,7448 13483,7448 13710,7448 13937,7448 14164,7448 14391,7448 14618,7448 14844,7448 15071,7448 15298,7448 15525,7448 15752,7448 15979,7448 16206,7448 16433,7448 16659,7448 16886,7448 17113,7448 17340,7448 17567,7448 17794,7448 18021,7448 18247,7448 18474,7448 18701,7448 18928,7448 19155,7448 19382,7448 19609,7448"/>
 <text class="TextShape"><tspan class="TextParagraph" font-family="Liberation Sans" font-size="353px" font-weight="400"><tspan class="TextPosition" x="410" y="7943"/><tspan class="TextPosition" x="410" y="7943"><tspan fill="rgb(0,0,0)" stroke="none">1,00E+00</tspan></tspan></tspan></text>
 <text class="TextShape"><tspan class="TextParagraph" font-family="Liberation Sans" font-size="353px" font-weight="400"><tspan class="TextPosition" x="410" y="6087"/><tspan class="TextPosition" x="410" y="6087"><tspan fill="rgb(0,0,0)" stroke="none">1,00E+01</tspan></tspan></tspan></text>
 <text class="TextShape"><tspan class="TextParagraph" font-family="Liberation Sans" font-size="353px" font-weight="400"><tspan class="TextPosition" x="410" y="4231"/><tspan class="TextPosition" x="410" y="4231"><tspan fill="rgb(0,0,0)" stroke="none">1,00E+02</tspan></tspan></tspan></text>
 <text class="TextShape"><tspan class="TextParagraph" font-family="Liberation Sans" font-size="353px" font-weight="400"><tspan class="TextPosition" x="410" y="2375"/><tspan class="TextPosition" x="410" y="2375"><tspan fill="rgb(0,0,0)" stroke="none">1,00E+03</tspan></tspan></tspan></text>
 <text class="TextShape"><tspan class="TextParagraph" font-family="Liberation Sans" font-size="353px" font-weight="400"><tspan class="TextPosition" x="410" y="519"/><tspan class="TextPosition" x="410" y="519"><tspan fill="rgb(0,0,0)" stroke="none">1,00E+04</tspan></tspan></tspan></text>
 <path fill="rgb(0,69,134)" stroke="none" d="M 5843,8415 L 5843,8626 6054,8626 6054,8415 5843,8415 Z"/>
 <path fill="none" stroke="rgb(0,69,134)" stroke-linejoin="round" d="M 5843,8415 L 5843,8626 6054,8626 6054,8415 5843,8415 Z"/>
 <path fill="none" stroke="rgb(255,211,32)" stroke-width="80" stroke-linejoin="round" stroke-dasharray="158,158" d="M 5149,9018 L 6749,9018"/>
 <path fill="none" stroke="rgb(255,66,14)" stroke-width="80" stroke-linejoin="round" stroke-dasharray="158,158" d="M 5149,9516 L 6749,9516"/>
 <text class="TextShape"><tspan class="TextParagraph" font-family="Liberation Sans" font-size="353px" font-weight="400"><tspan class="TextPosition" x="6849" y="8640"/><tspan class="TextPosition" x="6849" y="8640"><tspan fill="rgb(0,0,0)" stroke="none">Einige Differenzen der Energiniveaus des Siliciums  </tspan></tspan></tspan></text>
 <text class="TextShape"><tspan class="TextParagraph" font-family="Liberation Sans" font-size="353px" font-weight="400"><tspan class="TextPosition" x="6849" y="9138"/><tspan class="TextPosition" x="6849" y="9138"><tspan fill="rgb(0,0,0)" stroke="none">Obere Grenze des sichtbaren Spektrums</tspan></tspan></tspan></text>
 <text class="TextShape"><tspan class="TextParagraph" font-family="Liberation Sans" font-size="353px" font-weight="400"><tspan class="TextPosition" x="6849" y="9636"/><tspan class="TextPosition" x="6849" y="9636"><tspan fill="rgb(0,0,0)" stroke="none">Untere Grenze des sichtbaren Spektrums</tspan></tspan></tspan></text>
</svg>